<svg xmlns="http://www.w3.org/2000/svg" viewBox="0 0 239.17 239.18">

    <g id="Layer_2" data-name="Layer 2">
        <g id="Layer_1-2" data-name="Layer 1">
            <path class="cls-1" fill="currentColor"
                d="M71.67,113.16H0A119.75,119.75,0,0,1,113.16,0V71.68A38.78,38.78,0,0,1,103,98l-.13.14c-1.59,1.7-3.19,3.3-4.8,4.78A38.79,38.79,0,0,1,71.67,113.16Z" />
            <path class="cls-1" fill="#e5ba42"
                d="M102.87,136.5q.8.8,1.53,1.59a33.2,33.2,0,0,1,8.76,22.63v78.46A119.75,119.75,0,0,1,0,126H78.45a33.28,33.28,0,0,1,22.71,8.83Q102,135.64,102.87,136.5Z" />
            <path class="cls-1" fill="currentColor"
                d="M160.23,126h78.94A119.73,119.73,0,0,1,126,239.18V160.24a33.14,33.14,0,0,1,8.84-22.72l.13-.13c.83-.88,1.67-1.71,2.51-2.5A33.13,33.13,0,0,1,160.23,126Z" />
            <path class="cls-1" fill="currentColor"
                d="M134.09,97.25l-.1-.11a33.15,33.15,0,0,1-8-21.75V0A119.73,119.73,0,0,1,239.17,113.16H163.8a33.61,33.61,0,0,1-22.15-8.33A78.42,78.42,0,0,1,134.09,97.25Z" />
            <path class="cls-1" fill="currentColor"
                d="M137.52,118.25A74.57,74.57,0,0,0,128,126q-1,1-1.95,2l-.47.48a73.92,73.92,0,0,0-6.14,7.39,76.9,76.9,0,0,0-6.24-7.41l-1.08-1.1c-.44-.45-.89-.88-1.34-1.31a76.31,76.31,0,0,0-10.11-8.16c1.89-1.5,3.74-3.07,5.53-4.7q3.23-2.94,6.22-6.16c.26-.28.53-.57.78-.86,2.06-2.24,4-4.58,5.85-7q2.47,3.43,5.27,6.64c.57.65,1.14,1.29,1.73,1.93,1.74,1.89,3.57,3.71,5.47,5.44S135.44,116.64,137.52,118.25Z" />
        </g>
    </g>
</svg>